<?xml version="1.0" encoding="UTF-8" standalone="no"?>
<!DOCTYPE svg PUBLIC "-//W3C//DTD SVG 1.1//EN" "http://www.w3.org/Graphics/SVG/1.1/DTD/svg11.dtd">
<svg width="100%" height="100%" viewBox="0 0 1021 354" version="1.1" xmlns="http://www.w3.org/2000/svg" xmlns:xlink="http://www.w3.org/1999/xlink" xml:space="preserve" style="fill-rule:evenodd;clip-rule:evenodd;stroke-linejoin:round;stroke-miterlimit:1.41421;">
    <g>
        <path d="M869.125,226.221L868.861,231.107L860.278,232.031L859.882,237.577L866.88,236.785L866.616,241.671L859.617,242.463L858.957,252.63L853.675,253.159L855.392,227.674L869.125,226.221Z" style="fill:white;fill-rule:nonzero;"/>
        <path d="M881.141,224.901C886.291,224.373 888.139,228.334 887.875,232.559C887.611,235.993 886.159,239.558 882.726,240.746L887.347,249.593L881.669,250.254L877.576,242.067L876.519,242.199L875.991,250.914L870.709,251.442L872.426,225.957L881.141,224.901ZM877.312,230.183L876.783,237.313L879.424,237.049C881.933,236.785 882.593,234.804 882.726,233.22C882.858,231.635 882.461,229.786 879.953,230.051L877.312,230.183Z" style="fill:white;fill-rule:nonzero;"/>
        <path d="M890.252,236.653C890.78,228.73 896.062,223.052 902.268,222.392C908.475,221.732 913.096,226.353 912.436,234.276C911.908,242.331 906.626,247.877 900.42,248.537C894.214,249.065 889.724,244.576 890.252,236.653ZM907.154,234.804C907.55,229.786 905.173,226.881 901.872,227.278C898.571,227.674 895.93,231.107 895.534,236.125C895.138,241.142 897.515,244.047 900.684,243.651C903.985,243.255 906.89,239.69 907.154,234.804Z" style="fill:white;fill-rule:nonzero;"/>
        <path d="M934.752,219.091L938.977,218.695L939.901,243.915L934.62,244.444L934.224,230.315L929.074,242.199L925.376,242.595L921.811,231.635L919.566,246.16L914.285,246.688L918.51,220.939L922.736,220.543L927.753,235.2L934.752,219.091Z" style="fill:white;fill-rule:nonzero;"/>
        <path d="M961.425,216.186C966.575,215.658 968.423,219.619 968.159,223.844C967.895,228.202 965.518,232.559 960.237,233.088L956.671,233.484L956.143,242.199L950.861,242.727L952.578,217.242L961.425,216.186ZM957.596,221.468L957.067,228.598L959.708,228.334C962.217,228.07 962.878,226.089 963.01,224.505C963.142,222.92 962.745,221.071 960.237,221.336L957.596,221.468Z" style="fill:white;fill-rule:nonzero;"/>
        <path d="M980.572,214.073C985.721,213.545 987.57,217.506 987.306,221.732C987.042,225.165 985.589,228.73 982.156,229.919L986.778,238.766L981.1,239.426L977.006,231.239L975.95,231.371L975.422,240.086L970.14,240.614L971.857,215.129L980.572,214.073ZM976.61,219.355L976.082,226.485L978.723,226.221C981.232,225.957 981.892,223.976 982.024,222.392C982.156,220.807 981.76,218.959 979.251,219.223L976.61,219.355Z" style="fill:white;fill-rule:nonzero;"/>
        <path d="M1001.96,223.844L1008.57,236.389L1002.49,237.049L998.794,228.994L993.908,237.973L987.834,238.634L996.153,224.505L990.211,213.017L996.285,212.356L999.586,219.223L1003.68,211.564L1009.75,210.904L1001.96,223.844Z" style="fill:white;fill-rule:nonzero;"/>
        <g>
            <circle cx="1000.38" cy="187.532" r="8.187" style="fill:white;"/>
            <path d="M975.818,190.173C975.554,185.683 971.725,182.25 967.235,182.514L518.674,232.031L541.518,208.791C542.575,207.735 542.575,206.15 541.782,205.094L536.105,199.68C535.444,198.888 534.52,198.492 533.464,198.624L17.427,255.139C12.938,255.932 10.033,260.157 10.693,264.515C11.353,268.74 15.315,271.645 19.54,271.249L509.695,217.506L485.267,240.878C484.21,241.935 484.21,243.519 485.003,244.576L490.681,249.99C491.341,250.782 492.265,251.178 493.322,251.046L968.027,198.888C972.649,198.492 976.082,194.662 975.818,190.173Z" style="fill:white;fill-rule:nonzero;"/>
        </g>
        <g>
            <circle cx="18.88" cy="91.138" r="8.187" style="fill:white;"/>
            <path d="M1008.43,14.287C1008.17,9.798 1004.34,6.364 999.85,6.629L570.304,53.901L593.148,30.661C594.205,29.605 594.205,28.02 593.413,26.964L587.735,21.55C587.074,20.757 586.15,20.361 585.094,20.493L50.043,79.254C45.553,80.046 42.648,84.272 43.308,88.629C43.969,92.855 47.93,95.76 52.156,95.364L561.589,39.376L537.161,62.616C536.105,63.672 536.105,65.257 536.897,66.313L542.575,71.727C543.235,72.52 544.159,72.916 545.216,72.784L1000.77,22.87C1005.26,22.738 1008.7,18.777 1008.43,14.287Z" style="fill:white;fill-rule:nonzero;"/>
        </g>
        <g transform="matrix(6.02599,-0.686575,2.04567e-16,6.10421,-1214.07,11.8525)">
            <path d="M210.675,76.698C210.707,76.754 210.711,76.801 210.687,76.837C210.663,76.873 210.618,76.891 210.554,76.891L208.635,76.891C208.57,76.891 208.506,76.873 208.442,76.837C208.377,76.801 208.329,76.754 208.297,76.698L206.945,74.405C206.929,74.372 206.901,74.356 206.861,74.356L205.497,74.356C205.456,74.356 205.436,74.377 205.436,74.417L205.436,76.662C205.436,76.815 205.36,76.891 205.207,76.891L203.541,76.891C203.388,76.891 203.312,76.815 203.312,76.662L203.312,72.727L203.312,70.663L203.312,68.671C203.312,68.607 203.334,68.553 203.378,68.508C203.422,68.464 203.477,68.442 203.541,68.442L208.768,68.442C208.832,68.442 208.906,68.452 208.991,68.472C209.075,68.492 209.146,68.514 209.202,68.539L210.313,69.649C210.337,69.705 210.359,69.774 210.379,69.854C210.399,69.935 210.409,70.007 210.409,70.071L210.409,72.703C210.409,72.751 210.397,72.809 210.373,72.878C210.349,72.946 210.321,73.009 210.288,73.065L209.178,74.199L210.675,76.698ZM208.273,70.409L205.352,70.409L205.352,72.461L208.273,72.461L208.273,72.304L208.273,70.94L208.273,70.409Z" style="fill:white;fill-rule:nonzero;"/>
            <path d="M219.317,69.637C219.341,69.693 219.363,69.764 219.383,69.848C219.404,69.933 219.414,70.007 219.414,70.071L219.414,76.662C219.414,76.726 219.391,76.778 219.347,76.819C219.303,76.859 219.249,76.879 219.184,76.879L217.507,76.879C217.442,76.879 217.39,76.859 217.35,76.819C217.309,76.778 217.289,76.726 217.289,76.662L217.289,74.489C217.289,74.425 217.267,74.372 217.223,74.332C217.179,74.292 217.124,74.272 217.06,74.272L214.67,74.272C214.606,74.272 214.551,74.292 214.507,74.332C214.463,74.372 214.441,74.425 214.441,74.489L214.441,76.662C214.441,76.726 214.421,76.778 214.38,76.819C214.34,76.859 214.288,76.879 214.223,76.879L212.546,76.879C212.481,76.879 212.427,76.859 212.383,76.819C212.338,76.778 212.316,76.726 212.316,76.662L212.316,70.265L212.316,70.071L212.316,70.035C212.324,69.971 212.336,69.902 212.352,69.83C212.369,69.758 212.389,69.693 212.413,69.637L213.523,68.526C213.58,68.502 213.648,68.48 213.729,68.46C213.809,68.44 213.881,68.43 213.946,68.43L217.772,68.43C217.836,68.43 217.911,68.44 217.995,68.46C218.08,68.48 218.15,68.502 218.207,68.526L219.317,69.637ZM217.289,70.325L214.441,70.325L214.441,72.461L217.289,72.461L217.289,70.325Z" style="fill:white;fill-rule:nonzero;"/>
            <path d="M228.321,69.649C228.346,69.705 228.368,69.774 228.388,69.854C228.408,69.935 228.418,70.007 228.418,70.071L228.418,75.262C228.418,75.326 228.408,75.398 228.388,75.479C228.368,75.559 228.346,75.628 228.321,75.684L227.211,76.795C227.155,76.827 227.084,76.851 227,76.867C226.915,76.883 226.841,76.891 226.776,76.891L226.294,76.891L222.395,76.891L221.55,76.891C221.397,76.891 221.321,76.815 221.321,76.662L221.321,75.636L221.321,69.673L221.321,68.671C221.321,68.607 221.343,68.553 221.387,68.508C221.431,68.464 221.486,68.442 221.55,68.442L226.776,68.442C226.841,68.442 226.915,68.452 227,68.472C227.084,68.492 227.155,68.514 227.211,68.539L228.321,69.649ZM224.483,70.494L223.445,70.494L223.445,74.851L226.282,74.851L226.282,73.958L226.282,71.797L226.282,70.494L225.135,70.494L224.483,70.494Z" style="fill:white;fill-rule:nonzero;"/>
            <path d="M232.558,76.662C232.558,76.815 232.482,76.891 232.329,76.891L230.663,76.891C230.51,76.891 230.434,76.815 230.434,76.662L230.434,68.671C230.434,68.518 230.51,68.442 230.663,68.442L232.329,68.442C232.482,68.442 232.558,68.518 232.558,68.671L232.558,76.662Z" style="fill:white;fill-rule:nonzero;"/>
            <path d="M241.43,69.649C241.454,69.705 241.476,69.774 241.496,69.854C241.516,69.935 241.526,70.007 241.526,70.071L241.526,75.262C241.526,75.326 241.516,75.398 241.496,75.479C241.476,75.559 241.454,75.628 241.43,75.684L240.319,76.795C240.263,76.827 240.193,76.851 240.108,76.867C240.024,76.883 239.949,76.891 239.885,76.891L239.631,76.891L236.71,76.891L236.059,76.891C235.994,76.891 235.922,76.883 235.841,76.867C235.761,76.851 235.692,76.827 235.636,76.795L234.526,75.684C234.493,75.628 234.469,75.559 234.453,75.479C234.437,75.398 234.429,75.326 234.429,75.262L234.429,75.008L234.429,70.699L234.429,70.071C234.429,70.007 234.437,69.935 234.453,69.854C234.469,69.774 234.493,69.705 234.526,69.649L235.636,68.539C235.692,68.514 235.761,68.492 235.841,68.472C235.922,68.452 235.994,68.442 236.059,68.442L239.885,68.442C239.949,68.442 240.024,68.452 240.108,68.472C240.193,68.492 240.263,68.514 240.319,68.539L241.43,69.649ZM239.39,70.494L236.553,70.494L236.553,74.851L239.39,74.851L239.39,70.494Z" style="fill:white;fill-rule:nonzero;"/>
        </g>
        <g>
            <g transform="matrix(13.1522,-1.4985,4.46482e-16,13.3229,-2662.91,-483.012)">
                <path d="M210.675,76.698C210.707,76.754 210.711,76.801 210.687,76.837C210.663,76.873 210.618,76.891 210.554,76.891L208.635,76.891C208.57,76.891 208.506,76.873 208.442,76.837C208.377,76.801 208.329,76.754 208.297,76.698L206.945,74.405C206.929,74.372 206.901,74.356 206.861,74.356L205.497,74.356C205.456,74.356 205.436,74.377 205.436,74.417L205.436,76.662C205.436,76.815 205.36,76.891 205.207,76.891L203.541,76.891C203.388,76.891 203.312,76.815 203.312,76.662L203.312,72.727L203.312,70.663L203.312,68.671C203.312,68.607 203.334,68.553 203.378,68.508C203.422,68.464 203.477,68.442 203.541,68.442L208.768,68.442C208.832,68.442 208.906,68.452 208.991,68.472C209.075,68.492 209.146,68.514 209.202,68.539L210.313,69.649C210.337,69.705 210.359,69.774 210.379,69.854C210.399,69.935 210.409,70.007 210.409,70.071L210.409,72.703C210.409,72.751 210.397,72.809 210.373,72.878C210.349,72.946 210.321,73.009 210.288,73.065L209.178,74.199L210.675,76.698ZM208.273,70.409L205.352,70.409L205.352,72.461L208.273,72.461L208.273,72.304L208.273,70.94L208.273,70.409Z" style="fill:white;fill-rule:nonzero;"/>
                <path d="M219.317,69.637C219.341,69.693 219.363,69.764 219.383,69.848C219.404,69.933 219.414,70.007 219.414,70.071L219.414,76.662C219.414,76.726 219.391,76.778 219.347,76.819C219.303,76.859 219.249,76.879 219.184,76.879L217.507,76.879C217.442,76.879 217.39,76.859 217.35,76.819C217.309,76.778 217.289,76.726 217.289,76.662L217.289,74.489C217.289,74.425 217.267,74.372 217.223,74.332C217.179,74.292 217.124,74.272 217.06,74.272L214.67,74.272C214.606,74.272 214.551,74.292 214.507,74.332C214.463,74.372 214.441,74.425 214.441,74.489L214.441,76.662C214.441,76.726 214.421,76.778 214.38,76.819C214.34,76.859 214.288,76.879 214.223,76.879L212.546,76.879C212.481,76.879 212.427,76.859 212.383,76.819C212.338,76.778 212.316,76.726 212.316,76.662L212.316,70.265L212.316,70.071L212.316,70.035C212.324,69.971 212.336,69.902 212.352,69.83C212.369,69.758 212.389,69.693 212.413,69.637L213.523,68.526C213.58,68.502 213.648,68.48 213.729,68.46C213.809,68.44 213.881,68.43 213.946,68.43L217.772,68.43C217.836,68.43 217.911,68.44 217.995,68.46C218.08,68.48 218.15,68.502 218.207,68.526L219.317,69.637ZM217.289,70.325L214.441,70.325L214.441,72.461L217.289,72.461L217.289,70.325Z" style="fill:white;fill-rule:nonzero;"/>
                <path d="M228.321,69.649C228.346,69.705 228.368,69.774 228.388,69.854C228.408,69.935 228.418,70.007 228.418,70.071L228.418,75.262C228.418,75.326 228.408,75.398 228.388,75.479C228.368,75.559 228.346,75.628 228.321,75.684L227.211,76.795C227.155,76.827 227.084,76.851 227,76.867C226.915,76.883 226.841,76.891 226.776,76.891L226.294,76.891L222.395,76.891L221.55,76.891C221.397,76.891 221.321,76.815 221.321,76.662L221.321,75.636L221.321,69.673L221.321,68.671C221.321,68.607 221.343,68.553 221.387,68.508C221.431,68.464 221.486,68.442 221.55,68.442L226.776,68.442C226.841,68.442 226.915,68.452 227,68.472C227.084,68.492 227.155,68.514 227.211,68.539L228.321,69.649ZM224.483,70.494L223.445,70.494L223.445,74.851L226.282,74.851L226.282,73.958L226.282,71.797L226.282,70.494L225.135,70.494L224.483,70.494Z" style="fill:white;fill-rule:nonzero;"/>
                <path d="M232.558,76.662C232.558,76.815 232.482,76.891 232.329,76.891L230.663,76.891C230.51,76.891 230.434,76.815 230.434,76.662L230.434,68.671C230.434,68.518 230.51,68.442 230.663,68.442L232.329,68.442C232.482,68.442 232.558,68.518 232.558,68.671L232.558,76.662Z" style="fill:white;fill-rule:nonzero;"/>
                <path d="M241.43,69.649C241.454,69.705 241.476,69.774 241.496,69.854C241.516,69.935 241.526,70.007 241.526,70.071L241.526,75.262C241.526,75.326 241.516,75.398 241.496,75.479C241.476,75.559 241.454,75.628 241.43,75.684L240.319,76.795C240.263,76.827 240.193,76.851 240.108,76.867C240.024,76.883 239.949,76.891 239.885,76.891L239.631,76.891L236.71,76.891L236.059,76.891C235.994,76.891 235.922,76.883 235.841,76.867C235.761,76.851 235.692,76.827 235.636,76.795L234.526,75.684C234.493,75.628 234.469,75.559 234.453,75.479C234.437,75.398 234.429,75.326 234.429,75.262L234.429,75.008L234.429,70.699L234.429,70.071C234.429,70.007 234.437,69.935 234.453,69.854C234.469,69.774 234.493,69.705 234.526,69.649L235.636,68.539C235.692,68.514 235.761,68.492 235.841,68.472C235.922,68.452 235.994,68.442 236.059,68.442L239.885,68.442C239.949,68.442 240.024,68.452 240.108,68.472C240.193,68.492 240.263,68.514 240.319,68.539L241.43,69.649ZM239.39,70.494L236.553,70.494L236.553,74.851L239.39,74.851L239.39,70.494Z" style="fill:white;fill-rule:nonzero;"/>
            </g>
            <g transform="matrix(13.1522,-1.4985,4.46482e-16,13.3229,-2130.22,-511.211)">
                <path d="M209.407,70.265C209.407,70.329 209.385,70.383 209.341,70.428C209.297,70.472 209.242,70.494 209.178,70.494L207.464,70.494C207.4,70.494 207.345,70.514 207.301,70.554C207.257,70.594 207.235,70.647 207.235,70.711L207.235,76.662C207.235,76.726 207.215,76.781 207.174,76.825C207.134,76.869 207.082,76.891 207.017,76.891L205.34,76.891C205.275,76.891 205.221,76.869 205.177,76.825C205.132,76.781 205.11,76.726 205.11,76.662L205.11,70.711C205.11,70.647 205.09,70.594 205.05,70.554C205.01,70.514 204.957,70.494 204.893,70.494L203.179,70.494C203.115,70.494 203.06,70.472 203.016,70.428C202.972,70.383 202.95,70.329 202.95,70.265L202.95,68.671C202.95,68.518 203.026,68.442 203.179,68.442L209.178,68.442C209.242,68.442 209.297,68.464 209.341,68.508C209.385,68.553 209.407,68.607 209.407,68.671L209.407,70.265Z" style="fill:white;fill-rule:nonzero;"/>
                <path d="M217.772,69.649C217.796,69.705 217.818,69.774 217.838,69.854C217.859,69.935 217.869,70.007 217.869,70.071L217.869,75.262C217.869,75.326 217.859,75.398 217.838,75.479C217.818,75.559 217.796,75.628 217.772,75.684L216.662,76.795C216.605,76.827 216.535,76.851 216.45,76.867C216.366,76.883 216.291,76.891 216.227,76.891L215.974,76.891L213.053,76.891L212.401,76.891C212.336,76.891 212.264,76.883 212.184,76.867C212.103,76.851 212.035,76.827 211.978,76.795L210.868,75.684C210.836,75.628 210.812,75.559 210.795,75.479C210.779,75.398 210.771,75.326 210.771,75.262L210.771,75.008L210.771,70.699L210.771,70.071C210.771,70.007 210.779,69.935 210.795,69.854C210.812,69.774 210.836,69.705 210.868,69.649L211.978,68.539C212.035,68.514 212.103,68.492 212.184,68.472C212.264,68.452 212.336,68.442 212.401,68.442L216.227,68.442C216.291,68.442 216.366,68.452 216.45,68.472C216.535,68.492 216.605,68.514 216.662,68.539L217.772,69.649ZM215.732,70.494L212.896,70.494L212.896,74.851L215.732,74.851L215.732,70.494Z" style="fill:white;fill-rule:nonzero;"/>
                <path d="M225.944,69.649C225.968,69.705 225.99,69.774 226.01,69.854C226.03,69.935 226.04,70.007 226.04,70.071L226.04,72.823C226.04,72.888 226.03,72.962 226.01,73.047C225.99,73.131 225.968,73.202 225.944,73.258L224.833,74.368C224.777,74.393 224.706,74.415 224.622,74.435C224.537,74.455 224.463,74.465 224.399,74.465L224.049,74.465L223.167,74.465L221.936,74.465C221.872,74.465 221.818,74.485 221.773,74.525C221.729,74.566 221.707,74.618 221.707,74.682L221.707,76.662C221.707,76.815 221.631,76.891 221.478,76.891L219.812,76.891C219.659,76.891 219.583,76.815 219.583,76.662L219.583,75.503L219.583,70.506L219.583,68.671C219.583,68.607 219.605,68.553 219.649,68.508C219.693,68.464 219.748,68.442 219.812,68.442L224.399,68.442C224.463,68.442 224.537,68.452 224.622,68.472C224.706,68.492 224.777,68.514 224.833,68.539L225.944,69.649ZM223.988,72.498L223.988,70.361L221.622,70.361L221.622,72.498L223.988,72.498Z" style="fill:white;fill-rule:nonzero;"/>
                <path d="M229.565,76.662C229.565,76.815 229.488,76.891 229.335,76.891L227.67,76.891C227.517,76.891 227.44,76.815 227.44,76.662L227.44,68.671C227.44,68.518 227.517,68.442 227.67,68.442L229.335,68.442C229.488,68.442 229.565,68.518 229.565,68.671L229.565,76.662Z" style="fill:white;fill-rule:nonzero;"/>
                <path d="M238.509,69.637C238.533,69.693 238.555,69.764 238.575,69.848C238.595,69.933 238.605,70.007 238.605,70.071L238.605,76.662C238.605,76.726 238.583,76.778 238.539,76.819C238.495,76.859 238.44,76.879 238.376,76.879L236.698,76.879C236.634,76.879 236.582,76.859 236.541,76.819C236.501,76.778 236.481,76.726 236.481,76.662L236.481,74.489C236.481,74.425 236.459,74.372 236.415,74.332C236.37,74.292 236.316,74.272 236.252,74.272L233.862,74.272C233.797,74.272 233.743,74.292 233.699,74.332C233.655,74.372 233.632,74.425 233.632,74.489L233.632,76.662C233.632,76.726 233.612,76.778 233.572,76.819C233.532,76.859 233.48,76.879 233.415,76.879L231.737,76.879C231.673,76.879 231.619,76.859 231.574,76.819C231.53,76.778 231.508,76.726 231.508,76.662L231.508,70.265L231.508,70.071L231.508,70.035C231.516,69.971 231.528,69.902 231.544,69.83C231.56,69.758 231.58,69.693 231.605,69.637L232.715,68.526C232.771,68.502 232.84,68.48 232.92,68.46C233.001,68.44 233.073,68.43 233.138,68.43L236.964,68.43C237.028,68.43 237.103,68.44 237.187,68.46C237.272,68.48 237.342,68.502 237.398,68.526L238.509,69.637ZM236.481,70.325L233.632,70.325L233.632,72.461L236.481,72.461L236.481,70.325Z" style="fill:white;fill-rule:nonzero;"/>
            </g>
        </g>
    </g>
</svg>
